<svg width="345" height="252" viewBox="0 0 345 252" fill="none" xmlns="http://www.w3.org/2000/svg">
<path d="M166.985 0H174.121L180.138 0.419776L186.015 1.25933L190.353 2.09888L193.991 3.07836L196.789 4.05784L199.588 5.31716L202.246 6.57649L205.465 8.39552L209.243 10.4944L212.321 12.4534L214.28 13.8526L215.819 14.972L217.638 16.3713L219.597 17.9104L221.696 19.7295L223.515 21.4086L225.054 22.6679L228.692 26.306L229.951 28.4049L231.351 31.903L231.631 32.4627L231.91 32.6026H235.269L241.845 32.3228H245.623L246.882 32.7425L247.582 33.3022L248.002 34.1418V35.8209L247.022 37.7799L245.903 38.7593L244.084 39.319L240.446 39.7388L229.252 40.8582L227.153 41.1381L226.873 41.278L226.593 43.097V43.7966L229.672 44.3563L233.59 44.7761L235.828 44.916H242.545L245.343 44.7761H250.94L252.619 45.4757L253.319 46.1754L253.459 46.5951V47.7146L253.179 48.9739L252.479 50.0933L251.64 50.653L251.22 50.7929L243.664 50.9328L238.627 51.2127L233.869 51.7724L232.33 52.1922L231.211 52.8918L230.791 53.5914L230.651 54.291V55.4104L231.631 55.8302L234.429 56.3899L236.808 56.6698L239.466 56.8097L254.578 57.0896L255.698 56.8097L256.957 55.9701L257.797 55.5504L258.776 55.4104L260.735 55.6903L262.274 56.25L263.534 57.2295L264.093 58.209L264.233 59.1884L263.953 60.028L262.974 61.1474L261.715 61.9869L261.295 62.1269L259.476 62.2668L252.619 62.4067L244.644 62.6866L239.606 62.9664L235.269 63.1063L234.989 64.9254L234.849 66.8843L245.763 67.0243L252.479 67.3041L256.677 67.584L258.216 67.7239H263.254L266.612 66.6045L268.011 66.3246H270.67L272.209 66.8843L273.188 67.7239L273.888 68.8433L274.168 69.8228V71.9216L273.468 73.041L272.209 73.6007L271.369 73.7407H267.312L264.653 73.4608L263.394 73.041L262.834 72.4813L262.274 70.6623L262.414 71.9216L259.336 72.0616L256.397 72.3414L247.442 72.7612L235.828 73.4608L234.849 73.6007L234.709 75.9795H236.388L247.022 76.6791L251.78 76.959L255.138 77.3787L256.677 77.7985L258.216 80.3172L259.056 82.2761L259.616 84.6548V87.0336L258.916 88.4328L257.377 90.2519L256.957 90.6716L256.397 90.8116L253.879 90.9515L241.425 91.2313L237.368 91.3713L236.248 91.6511L235.409 93.3302L235.269 94.8694H238.347L251.36 94.5896L257.797 94.3097L258.916 94.1698H260.455L261.854 94.4496L262.134 94.7295L262.274 95.2892V96.6884L261.854 97.8078L260.875 98.6474L254.718 98.9272L243.944 99.347L232.61 99.4869L231.071 99.6269V101.166L231.491 102.285L232.05 102.565L235.688 102.985L249.401 103.685L252.759 103.825H261.015L262.274 104.104L262.834 104.524L262.974 104.944V106.763L262.554 108.022L261.715 109.002L260.875 109.282H259.196L253.599 108.862H245.903L234.569 109.142L228.272 109.422L226.174 109.701L225.894 110.541V112.22L226.174 112.92L227.713 113.06L232.19 113.2L250.66 113.34L251.22 113.899L251.78 115.438V117.257L251.5 117.957L251.08 118.377L250.101 118.657L248.422 118.797L236.668 118.937L228.972 119.356L225.194 119.776L222.535 120.336L221.976 120.756L221.836 121.875L222.675 122.435L226.313 123.134L231.91 123.694L236.108 123.974H239.606L240.306 123.834H244.784L245.623 124.254L246.043 124.813L246.183 125.373V127.612L245.763 129.151L245.063 129.851L244.224 129.991H224.075L222.675 130.69L220.297 132.369L217.778 134.188L214.979 136.287L212.601 137.966L210.222 139.506L207.843 140.905L203.226 143.144L200.567 144.263L196.369 145.802L191.752 147.341L188.534 148.181L185.595 148.741L179.718 149.58L174.961 150H166.146L161.808 149.72L156.631 149.16L152.993 148.601L149.075 147.621L145.856 146.502L141.379 144.683L138.021 143.144L134.103 141.185L132.703 140.345L131.164 139.506L128.785 137.966L126.127 136.287L123.888 134.608L122.069 133.209L120.53 132.09L118.711 130.55L118.151 129.991L116.612 129.851L105.558 129.571L93.1045 129.431L92.8246 129.291L92.5448 128.172V126.073L93.1045 124.953L93.8041 124.394L95.2034 123.834L96.7425 123.554L98.8414 123.414L112.694 123.134L117.032 122.994L118.851 122.854L118.431 120.196L118.011 120.056L109.056 119.496L100.8 119.076H96.3228L93.8041 119.216H90.5858L89.6063 118.937L88.9067 118.237L88.6269 116.978V114.459L88.9067 113.34L90.0261 113.2L92.6847 113.34L98.0019 113.479H111.155L115.912 113.2L115.493 109.422L112.414 109.562H98.7015L88.347 109.142L86.2481 109.002L85.5485 108.722L84.709 109.002L82.75 109.282L82.3302 109.562L81.4907 109.701H79.1119L78.1325 109.282L77.4328 108.722L76.8731 107.743L76.5933 106.343L76.7332 104.804L77.2929 103.965L78.4123 103.545H81.4907L83.3097 104.104L83.8694 104.384L84.9888 104.524L85.1287 105.504L85.5485 107.323L85.2687 105.084V104.384L91.4254 104.104L104.718 103.825L110.875 103.545L110.315 101.306L110.035 99.7668H106.118L93.8041 99.4869L84.709 99.0672L80.2313 98.6474L79.1119 98.3675L78.8321 98.0877L78.6922 96.8284L79.1119 95.4291L79.6716 95.0093L81.3507 94.5896L82.6101 94.4496H90.4459L95.3433 94.5896L103.879 95.1493L107.797 95.4291L107.517 94.0298L107.237 92.0709L100.94 91.6511L87.0877 90.9515L83.3097 90.6716L81.9104 90.2519L81.0709 89.6922L80.3713 88.8526L80.0914 87.7332V84.6548L80.3713 82.1362L80.791 80.8769L81.0709 80.1772L81.7705 79.4776L82.75 77.9384L83.8694 77.0989L85.2687 76.6791L88.7668 76.2593L93.3843 75.9795L105.418 75.5597L106.817 75.4198V72.2015H104.578L92.8246 71.9216H82.8899L78.5522 72.2015L77.0131 72.6213L74.0746 73.7407L72.8153 74.0205H70.5765L69.1772 73.3209L68.1978 72.0616L67.778 71.0821L67.6381 69.5429L67.9179 68.2836L68.6175 67.444L70.0168 66.7444L71.6959 66.4646H73.2351L75.8937 66.8843L76.4534 67.1642H79.2519L86.2481 66.8843H98.9813L103.179 67.0243H106.677L106.397 64.2257L106.257 63.806L104.998 63.5261L87.2276 62.5466L80.2313 62.2668L77.7127 61.9869L76.8731 61.4272L76.3134 60.4478L76.1735 59.8881V58.4888L76.4534 57.3694L77.0131 56.3899L77.7127 55.8302L78.972 55.4104L79.9515 55.2705H81.3507L83.3097 55.5504L83.5896 56.3899L85.9683 56.6698L90.0261 56.8097H96.8825L106.957 56.5299L107.797 56.1101L110.035 53.8713L110.455 52.7519L110.595 51.0728L89.1866 50.9328L88.2071 50.5131L87.6474 49.3937L87.3675 47.7146L87.2276 45.056L87.3675 44.2164L88.347 43.9366L91.9851 43.5168L104.019 42.9571L112.134 42.3974L115.772 41.8377L116.472 41.4179L116.752 40.8582V39.459L116.332 38.7593L115.772 38.4795H101.78L96.6026 38.3396L94.3638 38.0597L93.2444 37.2201L92.8246 36.3806L92.5448 34.7015V32.8825L92.8246 31.6231L93.2444 31.3433H98.7015L105.558 31.7631H114.933L115.772 31.6231L115.632 31.0634L115.213 30.9235L114.933 30.5037L114.793 29.3843L113.953 29.2444L113.534 29.6642H113.254V28.5448L114.093 26.4459L115.073 24.7668L116.472 23.2276L118.151 21.5485L119.271 20.569L120.95 18.8899L122.909 17.3507L124.448 15.9515L126.966 14.1325L129.765 12.1735L132.563 10.4944L136.201 8.53545L138.86 7.13619L144.597 4.75746L147.955 3.49813L151.174 2.51866L155.931 1.53918L159.709 0.979478L163.347 0.419776L166.985 0Z" fill="#FFBC05"/>
<path d="M190.353 11.8937H192.591L192.731 12.5933L192.312 14.2724L191.052 17.7705L189.373 22.8079L187.974 26.5858L186.575 30.2239L183.916 37.9198L180.558 47.9944L179.159 51.7724L176.64 59.6082L175.381 62.8265L174.121 66.7444L173.562 69.1232H179.298L196.229 68.7034L202.806 68.4235L203.086 68.5635L202.806 69.2631L201.687 70.6623L200.007 72.6213L198.888 74.0205L197.769 75.2799L197.209 76.1194L196.09 77.3788H195.81L195.53 77.9385L194.69 79.0579L193.571 80.597L192.731 81.7164H192.451L192.172 82.2761L190.912 83.8153L190.493 84.5149H190.213L189.933 85.2146L189.373 86.0541L188.813 86.7538L187.414 88.5728L186.295 89.972L185.455 90.9515L185.035 91.6511L184.476 92.2108L183.356 93.6101L181.817 95.709L180.278 97.6679L179.159 98.9273L178.739 99.347L178.039 100.606L176.78 102.285L175.381 104.104L174.261 105.784L172.722 107.743L171.463 109.422L169.644 111.8L168.384 113.479L166.565 115.998L165.166 117.817L163.067 120.616L161.668 122.435L160.129 124.534L158.59 126.493L156.771 129.011L153.972 132.509L152.573 133.909L151.313 134.608H149.634L149.354 134.468L149.494 132.929L151.034 127.472L152.573 123.554L153.972 120.056L155.511 115.858L157.33 111.381L158.729 107.463L161.528 100.466L163.347 95.1493L164.886 91.2314L166.705 86.1941L166.985 85.2146L138.16 85.3545L138.021 84.6549L139.14 82.6959L140.679 80.4571L142.638 77.7985L144.317 75.4198L145.856 73.3209L147.675 70.6623L149.215 68.8433L151.034 66.1847L152.433 64.3657L154.112 61.987L156.071 59.1885L157.61 57.0896L159.009 55.1306L162.368 50.653L163.907 48.6941L165.166 47.1549L166.565 45.1959L168.244 42.8172L170.063 40.5784L171.603 38.3396L173.002 36.6605L174.961 34.0019L176.22 32.3228L177.34 30.9235L179.019 28.5448L180.418 26.7258L181.397 25.3265L183.216 22.6679L184.336 21.1288L186.435 17.6306L187.974 14.972L189.513 12.7332L190.353 11.8937Z" fill="#F6F5F4"/>
<path d="M190.353 11.8937H192.591L192.731 12.5933L192.312 14.2724L191.052 17.7705L189.373 22.8079L187.974 26.5858L186.575 30.2239L183.916 37.9198L180.558 47.9944L179.159 51.7724L176.64 59.6082L175.381 62.8265L174.121 66.7444L173.562 69.1232H179.298L196.229 68.7034L202.806 68.4235L203.086 68.5635L202.806 69.2631L201.687 70.6623L200.007 72.6213L198.888 74.0205L197.769 75.2799L197.209 76.1194L196.09 77.3788H195.81L195.53 77.9385L194.69 79.0579L193.571 80.597L192.731 81.7164H192.451L192.172 82.2761L190.912 83.8153L190.493 84.5149H190.213L189.933 85.2146L189.373 86.0541L188.813 86.7538L187.414 88.5728L186.295 89.972L185.455 90.9515L185.035 91.6511L184.476 92.2108L183.356 93.6101L181.817 95.709L180.278 97.6679L179.159 98.9273L178.739 99.347L178.039 100.606L176.78 102.285L175.381 104.104L174.261 105.784L172.722 107.743L171.463 109.422L169.644 111.8L168.384 113.479L166.565 115.998L165.166 117.817L163.067 120.616L161.668 122.435L160.129 124.534L158.59 126.493L156.771 129.011L153.972 132.509L152.573 133.909L151.313 134.608H149.634L149.354 134.468L149.494 132.929L151.034 127.472L152.573 123.554L153.972 120.056L155.511 115.858L157.33 111.381L158.729 107.463L161.528 100.466L163.347 95.1493L164.886 91.2314L166.705 86.1941L166.985 85.2146L138.16 85.3545L138.021 84.6549L139.14 82.6959L140.679 80.4571L142.638 77.7985L144.317 75.4198L145.856 73.3209L147.675 70.6623L149.215 68.8433L151.034 66.1847L152.433 64.3657L154.112 61.987L156.071 59.1885L157.61 57.0896L159.009 55.1306L162.368 50.653L163.907 48.694L165.166 47.1549L166.565 45.1959L168.244 42.8172L170.063 40.5784L171.603 38.3396L173.002 36.6605L174.961 34.0019L176.22 32.3228L177.34 30.9235L179.019 28.5448L180.418 26.7258L181.397 25.3265L183.216 22.6679L184.336 21.1288L186.435 17.6306L187.974 14.972L189.513 12.7332L190.353 11.8937Z" fill="#F6F5F4"/>
<path d="M82.0504 81.5765H84.5691L96.6027 81.8563L102.48 82.1362L104.438 82.2761V82.556L105.418 82.6959L107.097 83.1157V83.3955L107.517 83.5354V83.8153H107.937V84.0951H108.216L108.356 84.375V85.4944H108.077L108.216 85.9142L107.517 86.0541L89.6064 85.6343L85.6885 85.3545L83.5896 84.7948L82.75 84.0951L82.1903 82.416L82.0504 81.5765Z" fill="white"/>
<path d="M254.438 80.7369H256.118L256.677 81.2966L256.957 81.9963L257.097 83.1157V84.7948L256.817 85.2146L256.397 85.3545H247.442L241.985 85.2146L239.187 85.0746L237.368 84.6548L236.668 83.5354L236.528 82.9757L237.647 82.556L239.746 81.9963L244.084 81.5765L248.142 81.0168L249.961 80.8769L254.438 80.7369Z" fill="white"/>
<path d="M68.6175 91.791H70.2966L71.9757 92.2108L73.375 93.0503L75.334 95.0093L75.7537 95.569L75.6138 96.2686L74.7743 97.388L73.375 98.3675L71.556 99.0671L70.0168 99.347H68.7575L66.9384 98.9272L64.9795 97.9477L64.1399 96.9683L64 96.6884V95.4291L64.5597 94.4496L65.3993 93.4701L66.7985 92.4906L68.0578 91.9309L68.6175 91.791Z" fill="#FFBC05"/>
<path d="M266.332 34.7015H268.151L269.69 35.1213L270.53 35.8209L271.369 37.2201L271.789 38.6194V40.0186L271.229 40.9981L270.11 41.9776L269.271 42.2574L268.291 42.3974L266.052 42.2574L264.233 41.6977L262.974 40.9981L262.274 40.4384L261.994 39.8787V38.3395L262.554 36.9403L263.254 36.1007L264.793 35.1213L266.332 34.7015Z" fill="#FFBC05"/>
<path d="M270.81 91.3713H272.069L273.748 91.6511L274.588 92.0709L275.287 92.7705L275.847 93.4702L276.267 94.8694L276.127 96.1287L275.427 97.3881L274.308 98.3675L273.049 98.9272L272.489 99.0672H270.25L268.431 98.3675L267.312 97.2481L266.612 96.1287L266.472 95.0093L267.032 93.4702L268.011 92.3508L269.271 91.6511L270.81 91.3713Z" fill="#FFBC05"/>
<path d="M263.394 122.155H265.073L266.472 122.854L267.591 124.114L268.291 125.793L268.431 126.493V127.612L268.011 128.871L267.032 129.991L265.492 130.97L264.373 131.25L262.974 130.55L261.714 129.151L261.155 127.612V125.233L261.435 124.114L262.134 122.994L262.834 122.435L263.394 122.155Z" fill="#FFBC05"/>
<path d="M72.1157 122.295L73.375 122.435L74.4945 123.134L75.334 124.254L75.7538 125.653V128.032L75.1941 129.151L74.0747 130.131L71.8359 131.11H70.9963L69.737 130.271L68.7575 129.011L68.4777 128.452V126.493L69.4571 124.534L70.4366 123.274L71.2762 122.575L72.1157 122.295Z" fill="#FFBC05"/>
<path d="M80.9309 122.155L84.2891 122.575L85.4085 122.994L86.1082 123.834L86.388 125.373V126.772L86.1082 128.172L85.5485 129.291L84.8488 130.131L83.5895 130.83L83.1697 130.97H82.1903L81.3507 130.41L80.3712 129.151L79.9514 127.612L79.8115 126.213V122.994L80.2313 122.295L80.9309 122.155Z" fill="#FFBC05"/>
<path d="M83.3097 34.4216H84.9888L85.8284 34.8414L86.528 35.681L86.8079 36.5205V38.4795L86.3881 39.8787L85.8284 40.5783L84.8489 40.9981H83.3097L82.0504 40.1586L81.2108 38.8992L81.0709 38.4795V36.8004L81.6306 35.541L82.1903 34.8414L83.3097 34.4216Z" fill="#FFBC05"/>
<path d="M254.858 122.575H255.838L256.817 122.994L257.097 123.274L257.237 123.834V125.793L256.677 127.192L255.838 128.312L255.138 129.011L254.159 129.431H253.039L252.2 128.452L251.78 127.192L251.64 125.793L252.06 124.394L252.759 123.554L254.298 122.715L254.858 122.575Z" fill="#FFBC05"/>
<path d="M185.315 90.6716L185.455 90.9515L185.035 91.6511L184.476 92.2108L183.356 93.6101L181.817 95.7089L180.278 97.6679L179.159 98.9272L179.019 99.2071H178.739L179.019 98.5075L180.418 96.9683L182.377 94.3097L183.916 92.3507L185.315 90.6716Z" fill="#E0E0DF"/>
<path d="M175.381 103.685V104.104L174.261 105.784L172.722 107.743V107.323L173.562 105.923L174.821 104.384L175.381 103.685Z" fill="#E0E0DF"/>
<path d="M199.168 73.3209V73.7407L197.769 75.2799L197.209 76.1194L196.369 76.8191L196.649 76.1194L198.608 73.8806L199.168 73.3209Z" fill="#E0E0DF"/>
<path d="M178.459 99.347L178.599 99.7668L176.92 102.146L176.36 102.565L176.64 101.866L177.759 100.327L178.459 99.347Z" fill="#E0E0DF"/>
<path d="M194.55 78.778L194.69 79.0578L193.571 80.597L192.731 81.7164L192.452 81.5765L194.131 79.3377L194.55 78.778Z" fill="#E0E0DF"/>
<path d="M27.62 251.44C22.4 251.44 17.3 250.87 12.32 249.73C7.4 248.53 3.35 246.94 0.17 244.96L7.01 229.48C10.01 231.22 13.37 232.63 17.09 233.71C20.81 234.73 24.38 235.24 27.8 235.24C30.74 235.24 32.84 234.97 34.1 234.43C35.36 233.83 35.99 232.96 35.99 231.82C35.99 230.5 35.15 229.51 33.47 228.85C31.85 228.19 29.15 227.47 25.37 226.69C20.51 225.67 16.46 224.59 13.22 223.45C9.98 222.25 7.16 220.33 4.76 217.69C2.36 214.99 1.16 211.36 1.16 206.8C1.16 202.84 2.27 199.24 4.49 196C6.71 192.76 10.01 190.21 14.39 188.35C18.83 186.49 24.2 185.56 30.5 185.56C34.82 185.56 39.05 186.04 43.19 187C47.39 187.9 51.08 189.25 54.26 191.05L47.87 206.44C41.69 203.32 35.84 201.76 30.32 201.76C24.86 201.76 22.13 203.08 22.13 205.72C22.13 206.98 22.94 207.94 24.56 208.6C26.18 209.2 28.85 209.86 32.57 210.58C37.37 211.48 41.42 212.53 44.72 213.73C48.02 214.87 50.87 216.76 53.27 219.4C55.73 222.04 56.96 225.64 56.96 230.2C56.96 234.16 55.85 237.76 53.63 241C51.41 244.18 48.08 246.73 43.64 248.65C39.26 250.51 33.92 251.44 27.62 251.44ZM125.38 187V250H104.14V226.78H84.5204V250H63.2804V187H84.5204V209.32H104.14V187H125.38ZM168.644 251.44C161.864 251.44 155.774 250.03 150.374 247.21C144.974 244.39 140.744 240.49 137.684 235.51C134.624 230.47 133.094 224.8 133.094 218.5C133.094 212.2 134.624 206.56 137.684 201.58C140.744 196.54 144.974 192.61 150.374 189.79C155.774 186.97 161.864 185.56 168.644 185.56C175.424 185.56 181.514 186.97 186.914 189.79C192.314 192.61 196.544 196.54 199.604 201.58C202.664 206.56 204.194 212.2 204.194 218.5C204.194 224.8 202.664 230.47 199.604 235.51C196.544 240.49 192.314 244.39 186.914 247.21C181.514 250.03 175.424 251.44 168.644 251.44ZM168.644 234.25C171.284 234.25 173.654 233.62 175.754 232.36C177.914 231.04 179.624 229.21 180.884 226.87C182.144 224.47 182.774 221.68 182.774 218.5C182.774 215.32 182.144 212.56 180.884 210.22C179.624 207.82 177.914 205.99 175.754 204.73C173.654 203.41 171.284 202.75 168.644 202.75C166.004 202.75 163.604 203.41 161.444 204.73C159.344 205.99 157.664 207.82 156.404 210.22C155.144 212.56 154.514 215.32 154.514 218.5C154.514 221.68 155.144 224.47 156.404 226.87C157.664 229.21 159.344 231.04 161.444 232.36C163.604 233.62 166.004 234.25 168.644 234.25ZM244.483 251.44C237.823 251.44 231.823 250.06 226.483 247.3C221.143 244.48 216.943 240.58 213.883 235.6C210.883 230.56 209.383 224.86 209.383 218.5C209.383 212.14 210.883 206.47 213.883 201.49C216.943 196.45 221.143 192.55 226.483 189.79C231.823 186.97 237.823 185.56 244.483 185.56C250.603 185.56 256.063 186.64 260.863 188.8C265.663 190.96 269.623 194.08 272.743 198.16L259.333 210.13C255.433 205.21 250.843 202.75 245.563 202.75C241.123 202.75 237.553 204.19 234.853 207.07C232.153 209.89 230.803 213.7 230.803 218.5C230.803 223.3 232.153 227.14 234.853 230.02C237.553 232.84 241.123 234.25 245.563 234.25C250.843 234.25 255.433 231.79 259.333 226.87L272.743 238.84C269.623 242.92 265.663 246.04 260.863 248.2C256.063 250.36 250.603 251.44 244.483 251.44ZM304.526 229.12L299.756 234.43V250H278.876V187H299.756V209.86L320.456 187H343.586L318.386 214.72L344.846 250H320.276L304.526 229.12Z" fill="#FFBC05"/>
</svg>
